<svg id="Layer_1" data-name="Layer 1" xmlns="http://www.w3.org/2000/svg" viewBox="0 0 323.63 244.83"><title>garena</title><path d="M190.42,196.82c6.8,5.47,19.59,8.39,22.74,28.6S198.59,277.64,172.08,288c-18.25,7.14-28.66,5.32-45.3,4.28-7-4-24.57-6.75-32-27.64-4-11.17-7.11-24.92-2.32-36.82l2.43-7.35c1.59-8.87.88,2.73,3.43-4.67.37-1.11-.7-.54,1.48-3.8l7.42-8c4-3.88,5.56-3.43,6.89-8.42-4.73-1.27-1.64-1.27-6.38-2.55l5.87-6.86c1.36-2,1.05-.56,1.79-3.31,5.67,1.33,4.08,2.52,8.9,3.82-5.5-10.43-2-9.8,6.69-18.79,6.29-6.52,10.23-9.24,18.79-13.07,11.34-5.07,24.69-6.29,39.43-5,5.81.48,8.05,2.32,14.15,2.46l1.47,1.11a11.33,11.33,0,0,0,2.5,1.33c8.76,4.11,24.18,10.72,33.05,11.51,24.49,2.18,13.26-.62,35.63,0,6.21.17,5.92,1.19,11.39,1.3-4.7-6.18-10.57-5.47-15.3-8.93,12.22-1.44,11.51-.28,13.21-3.09,1.27-2.12,3.12-3.74,7.14-3.57l3.66.71c.2,0,.56-.09.76-.09a7.73,7.73,0,0,0,.8-.19,7.15,7.15,0,0,1,.79-.23c6.92-1.79,10.88-7.68,18.82-9.55,7.06-1.65,14.29-1.65,22.4-13.18-11,.93-30.11,20.8-84.25,2.72-4.11-1.36-7.57-3.15-11.31-4,1.56-3.29,2.32-5.9-.28-9.86s-10-6.84-14.89-8a78.58,78.58,0,0,0-12.55-4.14c-4-.93-9.87-1.19-14.35-2.24,2.38-1.56,10.21-2.12,13-2.41,4.59-.48,10.34-.19,15.08-.19-2.75-3.63-6.12-2.84-12.56-2.33L206,99.06c-8.84,2.29-10.88,3.57-23.1,3.57,1.13-3.18,3.31-3.46-1.08-3.91-28-2.84-53.29,13.46-61.37,15.36,2.55-3.46,37.19-22.25,43.34-25.46l38-21.85c2.84-2.18,2.92-.94,4-4.93L191.3,66.37c-11.59,4.54-40,13-51.59,14.69-12.78,1.84.51-2.1-17.92,3.6l-6.94,2c-7.14,2.8-3.88,3.37-8,4.7-5.76,1.87-.12-2-5.28.06-4.16,1.7-1.5,2.15-6.6,3.51,2.64-4,6-6.09,9.89-9.26,5.47-4.48,9.33-5.48,10.49-9.87-6.29.14-8.7,3.26-13,6.12s-7.91,5.19-12.25,8.14c-4.59,3.12-6.15,5.19-11.54,7.57-5.66,2.52-8,4.28-13,7.48,1.28-4.9,5.07-8,7.65-12.73C67.45,94,71.91,95,63,101.15c-4.65,3.18-3.29,3-5.11,6.35-3.4,6.24-7.54,5.56-15.28,15.4-4.79,6.09-12.5,8.39-15.13,12.67l-1.05,3.6a6.77,6.77,0,0,1-.26.71c-2.41,4.9-9.46,6.15-10.12,13.63,5.62.14,8.93,1.33,16.5,1.3,43.83-.11,46.09-21.85,93.12-17.91,6.63.57,11.82,1.39,17.74,1.36v2.52c-15.9.34-48.07,16.95-58.28,24.55-15.84,11.82-29.5,27.75-35.91,48.22-11.71,37.41,7.26,66,37.28,81,7,3.55,21.88,10.29,31.06,10.57,5.47,2.3,55.68,1.45,57.06,1,4.09-1.28,1,.28-.28-.91-2.69-2.55-2.55,1.76-1.59-1.39,3.12-.74,10.72-1.42,12.82-3.09.11-.09.34-.37.42-.45l.77-1.53c9.38,0,20-1.88,26.19-5.65,6.35-3.88,7.06-2.26,15.39-5,8.9-2.95,32-10.63,36.11-16-8.07,1.93-22.16,8.93-37,8.93.26-.2.71-.71.85-.48s.65-.37.85-.45c8.48-4.51,3.83-2.7,8.14-5.93a27.53,27.53,0,0,1,4.22-2.15c-.08-3.89-.6-4.6-1.28-7.66,4.6-3.09,4-1.78,5.05-6.32l.45-2.21c1.28-6.86,3.46-8.59,10.21-16.58l18.85-21.6c-.62-5.56,40.65-20.47,41.95-36-3.43,2.61-2.72,4.62-10.09,10.23-11.76,9-16.5,9-31.95,8.87-9-.08-12.1,1.31-20.41,1.31,3.8-5.39,3.32.17,5.11-6.38-6.3,1.5-8.25,2.61-16.53,2.64-19.19,0-21.2-12.53-45-14.12-21.92-.37-47.71-4.79-71.49,10.89-36.48,24-22.62,56.92,3.12,57.94,7.2.28,12.64-2,16.12-5.56,13.36-13.86-2.86-26.14-4.22-28.06-14.23-20.16,11.93-29.34,39.66-24.38,4,.71,6,1.53,9.41,1.84Z" transform="translate(-16.03 -61.84)" fill="#fff" fill-rule="evenodd"/></svg>