<svg id="Layer_1" data-name="Layer 1" xmlns="http://www.w3.org/2000/svg" viewBox="0 0 120.13 20"><title>Krafton</title><path d="M111.73,20l-.6-1.2V9.24L115.33,20h4.8l-.6-1.2V1.19l.6-1.19h-5.2l.6,1.19v9.56L111.33,0h-4.8l.6,1.19V18.8l-.6,1.19Z" transform="translate(0 0.01)" fill="#fff"/><path d="M93.52,4h4.4V16h-4.4Zm5.6,16,2.8-2.8h0V2.8L99.12,0h-6.8l-2.8,2.8V17.2h0l2.8,2.8Z" transform="translate(0 0.01)" fill="#fff"/><path d="M81.52,20l-.6-1.2V4h3.2l1.2.6V0H72.53V4.6l1.2-.6h3.19V18.8l-.6,1.2Z" transform="translate(0 0.01)" fill="#fff"/><path d="M61.7,20l-.6-1.2V12h4l1.2.61V7.43L65.1,8h-4V4h6l1.2.6V0H56.5l.6,1.2V18.8L56.5,20Z" transform="translate(0 0.01)" fill="#fff"/><path d="M42.24,12.72,44,6.08l1.73,6.64ZM52,20l-.51-1.11L46.73,1.16,47.17,0h-6.4l.44,1.16L36.48,18.89,36,20h5l-.23-1.48.51-2H46.7l.5,2L47,20Z" transform="translate(0 0.01)" fill="#fff"/><path d="M23.39,4h4v6.14h-4Zm-4.6-4,.6,1.2V18.8l-.6,1.2H24l-.6-1.2V14.14h1.4l1.68,4.57L26.39,20h5.4l-1.06-1.53-1.81-4.66,2.47-2.47h0V2.8L28.59,0Z" transform="translate(0 0.01)" fill="#fff"/><path d="M14.6,20l-1.22-1.54L8.7,9,13,1.22,14,0H8.8l.06,1L5.29,7.55H4.6V1.19L5.2,0H0L.6,1.19V18.8L0,20H5.2l-.6-1.2V11.55h.65L8.86,19,8.8,20Z" transform="translate(0 0.01)" fill="#fff"/></svg>