<svg id="Layer_1" data-name="Layer 1" xmlns="http://www.w3.org/2000/svg" viewBox="0 0 390.29 390.27"><title>moonton</title><path d="M458.39,421.75a153.37,153.37,0,0,1-16.83-.94c.55,35.24-8.87,60.27-14.43,71.87a194.57,194.57,0,0,0,136.59-62A229.54,229.54,0,0,0,557,385.29,151.1,151.1,0,0,1,458.39,421.75Z" transform="translate(-225.8 -102.5)" fill="#fff"/><path d="M437.13,420.25a151.5,151.5,0,0,1-99-57.71c-33.88,7-64.9,39.53-74.58,50.52a194.92,194.92,0,0,0,156,79.72C437.25,457.4,438.88,433.83,437.13,420.25Z" transform="translate(-225.8 -102.5)" fill="#fff"/><path d="M458.39,118.35a151,151,0,0,1,75.13,19.88A195.26,195.26,0,0,0,321.1,130a224.19,224.19,0,0,1,48.09,17.4A150.94,150.94,0,0,1,458.39,118.35Z" transform="translate(-225.8 -102.5)" fill="#fff"/><path d="M309.72,239.78A151.67,151.67,0,0,1,363,152.1c-9.63-4.92-30.57-14.88-48.32-18.14A195.51,195.51,0,0,0,233,245.06C257.16,237.24,288.73,238,309.72,239.78Z" transform="translate(-225.8 -102.5)" fill="#fff"/><path d="M335.24,358.63a151,151,0,0,1-28.55-88.58,152.73,152.73,0,0,1,1.86-23.78c-39.79-5.52-66.31,1.2-77.18,4.94A195.5,195.5,0,0,0,260,408C282.57,377.78,317,364.07,335.24,358.63Z" transform="translate(-225.8 -102.5)" fill="#fff"/><path d="M606.48,237A151.9,151.9,0,0,1,561,381.76c3.84,14.07,6.8,32.37,8.29,42.64A195.35,195.35,0,0,0,606.48,237Z" transform="translate(-225.8 -102.5)" fill="#fff"/><path d="M345,326.09S321.5,192.25,438.39,187.88,523.6,297.1,523.6,297.1s28.4-28.94,13.11-82.46S457,140.36,402.36,161.12,318.81,249.14,345,326.09Z" transform="translate(-225.8 -102.5)" fill="#fff"/><path d="M516.32,265.61s-6.19-60.44-76.46-59.71-98.3,88.83-65.53,142.35,76.15,50.25,121.81,39.69c0,0-69,8.74-98.51-42.6s3.83-98.42,37.86-105.7C463.89,233.57,479.55,232.11,516.32,265.61Z" transform="translate(-225.8 -102.5)" fill="#fff"/><path d="M480.28,259.05s-76.46-24.39-73.55,55.71,153.64,83,171.48-12.74-61.89-142.36-61.89-142.36,60.7,47.1,37.5,125.61-106,36.42-98.3,4.92S480.28,259.05,480.28,259.05Z" transform="translate(-225.8 -102.5)" fill="#fff"/></svg>