<svg id="katman_1" data-name="katman 1" xmlns="http://www.w3.org/2000/svg" viewBox="0 0 2498.57 795"><title>Riot Games</title><path d="M649.61,1230.5l-36.12-93,349.07,18-15.67,148.93Zm83.64-720.83L244.76,740.42l75.55,347.72H420L402.74,839.4,418,834.66l59.91,253.47H581.46l-3.83-303,15.29-4.74,52.36,307.73h109.6l25.85-366L796,717.41l27.12,370.72H968.06l51-508.93Zm1508.58,757-1-29,100.29-1.18.92-31.62-102.39-1.27-1-29.37,134.9-3.16,1.1-34.68h-182l-5.43,168.32H2378l-1.34-34.75Zm-907.45-61.88-2.14,31.5,50.61,1.69-.64,32-105.94-3.11,4.62-92.34,145.66-3.37-2.1-34.75H1236.3l-16.87,168.32H1433.8l-5.55-101.54Zm1327.87,13-139-23.51.6-18.22,133-5-3.36-34.75h-171l-8.75,87.24,141.35,24.58.64,16-147.07,5.71-3.61,34.75h205.84Zm-567.37,86.88L2078,1136.35h-48.44L1960,1216.58l-69.59-80.23H1842l-16.87,168.32H1882l5.44-109.2,72.55,74.44,72.54-74.44,5.45,109.2ZM1855.74,520H1741.86l-10.37,520.53h137.6Zm352.88,407.31-125.66,4-4.17-306.13,131.43,4Zm110.13-407.08H1963.69l-13.82,520.3H2344Zm424.58,113.69L2730.65,520H2380.82l3,101.47,111.89,3.88,11.47,415.19H2645L2603.77,629ZM1390.9,626.44l109.74-3.67,12.5,103.71-126.66,59.83Zm128.21,414h149.45l-97.4-233.62,77.73-42.47-53.1-244.45H1214.28l-12.55,112.81,85.34-2.85-41.15,410.57h133.57l3.61-130.88L1479.34,857Zm72.69,188.32,11.57-55.07,55.56-2.51,11.61,55.26Zm95.18,75.87h57.62L1699,1136.34H1563.82l-45.58,168.33h57.62l8.92-42.47,93.53,1.21Z" transform="translate(-244.76 -509.67)" fill="#fff"/></svg>