<svg id="Layer_1" data-name="Layer 1" xmlns="http://www.w3.org/2000/svg" viewBox="0 0 1000 278.58"><title>valve</title><path d="M0,278.58V0H1000V278.58ZM173.8,57.15,140.48,183.34,107.16,57.15h-31l50,166.65h28.58l50-166.65Zm173.8,0H307.13l-50,166.65h33.32l10.24-40.46h50.95l10.24,40.46h33.32Zm233.32,138.1H509.49V57.15h-31V223.8H580.92ZM721.4,57.15,688.08,183.34,654.76,57.15h-31l50,166.65h28.58l50-166.65ZM892.82,150H847.59V123.82h40.47V102.38H847.59V78.56h45.23V57.13H823.77V171.41h69.05ZM326.19,83.35,345,157.16H307.36Z" transform="translate(0 -0.01)" fill="#fff"/></svg>