<svg id="Layer_1" data-name="Layer 1" xmlns="http://www.w3.org/2000/svg" viewBox="0 0 804 177.87"><title>zepetto</title><path d="M91.92,23.13c0,5,.08,10,0,15a4.67,4.67,0,0,1-.88,2.49Q53.61,93,16.11,145.35c-.56.79-1.09,1.61-1.77,2.63H83.87c0-4.66-.13-9.3,0-13.93.59-17.49,11-30.86,29.71-32.92a164,164,0,0,1,18.16-.54q43.2,0,86.41.06c.35,0,.69,0,1.25-.08a37.91,37.91,0,0,0-6.86-15.42C204,73.83,192.41,68.31,178.22,68c-10.79-.23-20.55,2.56-29.05,9.32a38.73,38.73,0,0,0-12.55,17.4,2.11,2.11,0,0,1-2.39,1.72c-3.87-.1-7.75,0-11.81,0A48.14,48.14,0,0,1,131,77.5C139.6,66,150.93,58.38,165.1,55.92c17.28-3,33.64-.62,47.81,10.72a51.25,51.25,0,0,1,19.18,32.91c.73,4.6.87,9.3,1.3,14.2H134.65c3.24,16.86,12.06,29.26,28.22,34.92,17.69,6.19,35.08,4,51.32-5.29,7.13-4.08,12.66-10.24,18.45-16,8.88-8.89,14.62-19.91,21.28-30.32a226.63,226.63,0,0,1,20.39-27.94c6.79-7.72,14.76-12.94,25.36-13.89,13.45-1.2,26.19.46,37.83,7.74,13.42,8.39,21.08,20.63,23.37,36.13,2.64,17.79-2.6,33.07-15.71,45.46-6.66,6.29-14.89,9.71-23.6,12a64,64,0,0,1-21.51,2.13,38.64,38.64,0,0,1-19.44-7.35c-4.34-3.08-8.3-6.7-12.49-10.13V143q0,24.36,0,48.71a16,16,0,0,1-.44,4,6.53,6.53,0,0,1-6.49,5.28c-3.2-.1-5.9-3.06-6.15-6.44-.07-.85,0-1.7,0-2.55,0-20.54,0-41.08.05-61.63a7.43,7.43,0,0,1,1.2-3.63c3.74-6,7.59-12,11.41-18,.17-.28.37-.55.53-.78.51,3.18.64,6.42,1.56,9.43,4.43,14.57,14.35,23.71,29,27.14,12.21,2.87,23.88.88,34.11-6.94,8.54-6.52,14-15,15.29-25.75,2.79-22.84-13.29-39.48-30.79-43-16.9-3.39-29.94,2.76-39.4,16.82-8.08,12-15.58,24.45-24,36.22-10.86,15.15-24.45,27.47-41.66,35.18-9.15,4.1-18.73,7.33-28.83,7.83a59.32,59.32,0,0,1-38.84-11.45c-12.74-9.28-20-22-23-37.29-.11-.55,0-1.13-.11-1.69a14.15,14.15,0,0,0-.32-1.39c-10.21-1-21.52,4.4-23.68,17.59-.67,4.06-.45,8.28-.51,12.42-.07,5.93,0,11.85,0,18.1H0V144.71A4.17,4.17,0,0,0,.77,144q11.37-15.85,22.71-31.73L74.61,41c1-1.45,2-2.93,3.13-4.51H17.79V39c0,8.4,0,16.79,0,25.19,0,4-2,6.77-5.07,7.27-4.76.78-8-2-8-7,0-13.76,0-27.52,0-41.27Z" transform="translate(0 -23.13)" fill="#fff"/><path d="M600.67,23.13c4.54,1.53,5.38,5.13,5.34,9.32,0,7.56,0,15.11,0,22.66V58h2.61q22.33,0,44.68,0c2,0,4.08.14,6.11.34a6.23,6.23,0,0,1,5.67,6.27A6.37,6.37,0,0,1,659.48,71a36.46,36.46,0,0,1-4.43.27q-23.09,0-46.16,0H606V74c0,19.2.28,38.41-.11,57.6-.22,11.11,6.57,17.52,15.52,19.24A54.9,54.9,0,0,0,657.46,146c7-3.58,12.12-9.48,16.31-16,5.29-8.18,10-16.72,15-25.08,5.93-9.89,11.55-20,18.83-29,9.64-11.93,21.68-19.49,37.14-21.41,22.84-2.84,44.44,8.92,53.84,28.33a49.74,49.74,0,0,1,5,19.42,5.7,5.7,0,0,0,.4,1.36v7.62l-1.26,8.44c-3.82,25.6-22.29,41-43.31,44.66-18.4,3.25-35.41-1-48.88-15.07-5.78-6-9.52-13.34-12.32-21.15a2.56,2.56,0,0,1,0-1.81c2.22-4.11,4.52-8.17,6.7-12.08,2.13,4.73,3.92,9.62,6.42,14.11,5.76,10.28,13.84,18.15,25.42,21.55,13.42,3.94,26.32,2.89,37.91-5.59,9.21-6.75,14.38-16.25,16.9-27.17,3.56-15.36-4.13-35.58-18.72-43.65A46.5,46.5,0,0,0,749.59,68c-11.3,0-20.42,4.88-28.32,12.56-6.59,6.4-11.2,14.16-15.59,22.15-6.6,12-12.55,24.39-20.66,35.5-9.73,13.32-22.56,22.11-38.77,25.4-11.5,2.34-23.09,2.51-34.22-2-10-4-16.87-11-18.74-22.07a39.43,39.43,0,0,1-.49-6.52q-.06-29.22,0-58.45V71.44H513.83v2.35c0,19.48.17,39-.07,58.45-.12,10.11,6.26,16.25,14.45,18.41,7.18,1.89,14.41,1.49,21.6.34a92.17,92.17,0,0,0,23.34-6.72c2.35-1.06,4.57-2.47,7-3.33s4.75.24,6.37,2.45c1.41,2,1.71,5.11.22,6.9a17.44,17.44,0,0,1-4.74,4.08c-8.16,4.49-17,7.11-26.11,8.95a72.86,72.86,0,0,1-23.7,1.3c-12.2-1.56-22.65-6-28.65-17.63a26.43,26.43,0,0,1-2.81-12.18c-.05-20.26,0-40.52,0-60.78V71.26c-1.85,0-3.52,0-5.18,0-4.44-.07-8.89,0-13.32-.3-3.45-.2-5.67-2.92-5.65-6.43a6,6,0,0,1,5.66-6.2c4.15-.25,8.31-.27,12.47-.36,1.9,0,3.8,0,6,0V31.68c0-4.95,1.12-6.69,5.51-8.55h2.11c4.45,1.82,5.51,3.47,5.51,8.49V57.78h78.95c0-8.78,0-17.39,0-26,0-4.05,1.16-7.27,5.37-8.66Z" transform="translate(0 -23.13)" fill="#fff"/><path d="M481.71,113.82H382.46c1.32,4,2.22,7.93,3.82,11.5,6.55,14.69,18,23.4,33.79,25.7,18.27,2.66,35.15-1.5,50.38-12,4.42-3.06,8.79-2.07,10.43,2.48a6.12,6.12,0,0,1-1.3,6.44c-3.26,3.76-7.47,6.17-11.88,8.25A90.34,90.34,0,0,1,427.16,165c-28-.45-50.31-19.52-56.21-43.32C362.73,88.58,384.82,61.88,412,56.21c13.47-2.81,26.76-2,39.22,4.24,15.49,7.72,25.14,20.23,28.62,37.21C480.93,102.84,481.1,108.2,481.71,113.82Zm-98.64-13.3h84.52A40.29,40.29,0,0,0,451.42,76c-10.77-7.68-22.75-9.33-35.51-7.18A40.74,40.74,0,0,0,383.07,100.52Z" transform="translate(0 -23.13)" fill="#fff"/></svg>